# xmcd
#
# Track frame offsets:
#	150
#	16120
#	26250
#	35699
#	48157
#	59820
#	70537
#	85012
#	96474
#	108652
#	124230
#	139371
#	152645
#	164027
#
# Disc length: 2335 seconds
#
# Revision: 1
# Processed by: cddbd v1.5.2PL0 Copyright (c) Steve Scherf et al.
# Submitted via: EasyCDDAExtractor 7.0.6.1
#
DISCID=bf091d0e
DTITLE=Freddy Quinn - Grammophon Nostalgie
DYEAR=2008
DGENRE=
TTITLE0=Brennend Heisser Wüstensand
TTITLE1=Sie Heiss Mary - Ann (Sixteen Tons)
TTITLE2=So Geht das Jede Nacht
TTITLE3=Wer das Vergisst
TTITLE4=Bel Sante
TTITLE5=Einmal in Tampico
TTITLE6=Endlose Nächte
TTITLE7=Calypso Italiano
TTITLE8=Gitarren - Joe
TTITLE9=Rosalie
TTITLE10=Wo Meine Sonne Scheint (Island i n the Sun)
TTITLE11=So Wie Es Frü War (Am Lagerfeuer der Prärie)
TTITLE12=Little Darling
TTITLE13=Der Weisse Mond von Maratonga
EXTD=
EXTT0=
EXTT1=
EXTT2=
EXTT3=
EXTT4=
EXTT5=
EXTT6=
EXTT7=
EXTT8=
EXTT9=
EXTT10=
EXTT11=
EXTT12=
EXTT13=
PLAYORDER=
